<svg width="21" height="20" viewBox="0 0 21 20" fill="none" xmlns="http://www.w3.org/2000/svg">
<mask id="path-1-inside-1_1_3841" fill="white">
<path fill-rule="evenodd" clip-rule="evenodd" d="M19.8587 8.13109C20.4178 7.73231 20.4178 6.90166 19.8587 6.50288L11.0807 0.241367C10.4188 -0.230802 9.5 0.242392 9.5 1.05547V4.01179C4.20944 4.27231 0 8.64433 0 13.9995V19.9995L1.69742 15.9151C3.02724 12.7152 6.06926 10.5786 9.5 10.3884V13.5785C9.5 14.3916 10.4188 14.8648 11.0807 14.3926L19.8587 8.13109Z"/>
</mask>
<path d="M19.8587 6.50288L18.9876 7.72404L18.9876 7.72404L19.8587 6.50288ZM19.8587 8.13109L18.9876 6.90993L18.9876 6.90993L19.8587 8.13109ZM11.0807 0.241367L11.9518 -0.979791V-0.979791L11.0807 0.241367ZM9.5 4.01179L9.57377 5.50998L11 5.43975V4.01179H9.5ZM0 19.9995H-1.5L1.38515 20.5752L0 19.9995ZM1.69742 15.9151L0.312271 15.3395H0.312271L1.69742 15.9151ZM9.5 10.3884H11V8.80288L9.41696 8.89065L9.5 10.3884ZM11.0807 14.3926L10.2096 13.1714L11.0807 14.3926ZM18.9876 7.72404C18.7081 7.52465 18.7081 7.10932 18.9876 6.90993L20.7298 9.35225C22.1274 8.35531 22.1274 6.27867 20.7298 5.28172L18.9876 7.72404ZM10.2096 1.46253L18.9876 7.72404L20.7298 5.28172L11.9518 -0.979791L10.2096 1.46253ZM11 1.05547C11 1.46201 10.5406 1.69861 10.2096 1.46253L11.9518 -0.979791C10.297 -2.16021 8 -0.977229 8 1.05547H11ZM11 4.01179V1.05547H8V4.01179H11ZM1.5 13.9995C1.5 9.44804 5.07803 5.73136 9.57377 5.50998L9.42623 2.51361C3.34086 2.81326 -1.5 7.84061 -1.5 13.9995H1.5ZM1.5 19.9995V13.9995H-1.5V19.9995H1.5ZM0.312271 15.3395L-1.38515 19.4239L1.38515 20.5752L3.08256 16.4907L0.312271 15.3395ZM9.41696 8.89065C5.41347 9.11261 1.86401 11.6056 0.312271 15.3395L3.08256 16.4907C4.19048 13.8248 6.72505 12.0445 9.58304 11.8861L9.41696 8.89065ZM11 13.5785V10.3884H8V13.5785H11ZM10.2096 13.1714C10.5406 12.9354 11 13.172 11 13.5785H8C8 15.6112 10.297 16.7942 11.9518 15.6138L10.2096 13.1714ZM18.9876 6.90993L10.2096 13.1714L11.9518 15.6138L20.7298 9.35225L18.9876 6.90993Z" fill="white" mask="url(#path-1-inside-1_1_3841)"/>
</svg>
