<svg width="24" height="24" viewBox="0 0 24 24" fill="none" xmlns="http://www.w3.org/2000/svg">
<mask id="path-1-inside-1_1_5739" fill="white">
<path fill-rule="evenodd" clip-rule="evenodd" d="M12 2C10.3431 2 8.99997 3.34315 8.99997 5V5.67363C8.65784 5.83616 8.33099 6.02563 8.02215 6.23929L7.4377 5.90185C6.00282 5.07343 4.16805 5.56505 3.33962 6.99993C2.51119 8.43481 3.00282 10.2696 4.4377 11.098L5.0224 11.4356C5.00754 11.6218 4.99997 11.81 4.99997 12C4.99997 12.19 5.00754 12.3781 5.02239 12.5643L4.4377 12.9019C3.00282 13.7303 2.51119 15.5651 3.33962 16.9999C4.16805 18.4348 6.00282 18.9264 7.4377 18.098L8.02204 17.7606C8.33091 17.9743 8.6578 18.1638 8.99997 18.3264V19C8.99997 20.6569 10.3431 22 12 22C13.6568 22 15 20.6569 15 19V18.3264C15.3421 18.1638 15.669 17.9744 15.9778 17.7607L16.5621 18.098C17.9969 18.9264 19.8317 18.4348 20.6601 16.9999C21.4886 15.5651 20.9969 13.7303 19.5621 12.9019L18.9775 12.5644C18.9924 12.3782 19 12.19 19 12C19 11.81 18.9924 11.6217 18.9775 11.4355L19.5621 11.098C20.9969 10.2696 21.4886 8.43481 20.6601 6.99993C19.8317 5.56505 17.9969 5.07343 16.5621 5.90186L15.9777 6.23922C15.6689 6.02559 15.3421 5.83614 15 5.67363V5C15 3.34315 13.6568 2 12 2Z"/>
</mask>
<path d="M8.99997 5.67363L9.64361 7.02852L10.5 6.62171V5.67363H8.99997ZM8.02215 6.23929L7.27215 7.53832L8.09457 8.01315L8.87555 7.47286L8.02215 6.23929ZM7.4377 5.90185L6.6877 7.20089H6.6877L7.4377 5.90185ZM3.33962 6.99993L2.04058 6.24993H2.04058L3.33962 6.99993ZM4.4377 11.098L5.1877 9.79897H5.1877L4.4377 11.098ZM5.0224 11.4356L6.51765 11.5549L6.59301 10.6103L5.7724 10.1365L5.0224 11.4356ZM5.02239 12.5643L5.77239 13.8633L6.59298 13.3896L6.51764 12.445L5.02239 12.5643ZM4.4377 12.9019L3.6877 11.6028L3.6877 11.6028L4.4377 12.9019ZM3.33962 16.9999L2.04058 17.7499H2.04058L3.33962 16.9999ZM7.4377 18.098L6.6877 16.799L6.68769 16.799L7.4377 18.098ZM8.02204 17.7606L8.87547 16.5271L8.09448 15.9868L7.27204 16.4616L8.02204 17.7606ZM8.99997 18.3264H10.5V17.3783L9.64361 16.9715L8.99997 18.3264ZM15 18.3264L14.3563 16.9715L13.5 17.3783V18.3264H15ZM15.9778 17.7607L16.7278 16.4617L15.9054 15.9868L15.1244 16.5271L15.9778 17.7607ZM16.5621 18.098L17.3121 16.799L16.5621 18.098ZM20.6601 16.9999L21.9592 17.7499L21.9592 17.7499L20.6601 16.9999ZM19.5621 12.9019L18.8121 14.2009H18.8121L19.5621 12.9019ZM18.9775 12.5644L17.4823 12.4451L17.4069 13.3896L18.2275 13.8634L18.9775 12.5644ZM18.9775 11.4355L18.2275 10.1364L17.4069 10.6102L17.4823 11.5548L18.9775 11.4355ZM19.5621 11.098L18.8121 9.79897L18.8121 9.79897L19.5621 11.098ZM16.5621 5.90186L17.3121 7.20089L17.3121 7.20089L16.5621 5.90186ZM15.9777 6.23922L15.1243 7.47281L15.9053 8.01308L16.7277 7.53826L15.9777 6.23922ZM15 5.67363H13.5V6.62171L14.3563 7.02852L15 5.67363ZM10.5 5C10.5 4.17157 11.1715 3.5 12 3.5V0.5C9.51469 0.5 7.49997 2.51472 7.49997 5H10.5ZM10.5 5.67363V5H7.49997V5.67363H10.5ZM8.87555 7.47286C9.11838 7.30486 9.37513 7.15606 9.64361 7.02852L8.35633 4.31874C7.94055 4.51626 7.54359 4.74639 7.16874 5.00572L8.87555 7.47286ZM6.6877 7.20089L7.27215 7.53832L8.77215 4.94025L8.1877 4.60282L6.6877 7.20089ZM4.63866 7.74993C5.05287 7.03249 5.97026 6.78668 6.6877 7.20089L8.1877 4.60282C6.03538 3.36018 3.28322 4.09761 2.04058 6.24993L4.63866 7.74993ZM5.1877 9.79897C4.47026 9.38475 4.22444 8.46737 4.63866 7.74993L2.04058 6.24993C0.797942 8.40225 1.53538 11.1544 3.6877 12.397L5.1877 9.79897ZM5.7724 10.1365L5.1877 9.79897L3.6877 12.397L4.2724 12.7346L5.7724 10.1365ZM6.49997 12C6.49997 11.8499 6.50595 11.7014 6.51765 11.5549L3.52715 11.3163C3.50913 11.5421 3.49997 11.7701 3.49997 12H6.49997ZM6.51764 12.445C6.50595 12.2985 6.49997 12.1501 6.49997 12H3.49997C3.49997 12.2298 3.50913 12.4578 3.52714 12.6836L6.51764 12.445ZM5.1877 14.2009L5.77239 13.8633L4.27239 11.2652L3.6877 11.6028L5.1877 14.2009ZM4.63866 16.2499C4.22444 15.5325 4.47026 14.6151 5.1877 14.2009L3.6877 11.6028C1.53538 12.8455 0.797941 15.5976 2.04058 17.7499L4.63866 16.2499ZM6.68769 16.799C5.97026 17.2132 5.05287 16.9674 4.63866 16.2499L2.04058 17.7499C3.28322 19.9022 6.03538 20.6397 8.1877 19.397L6.68769 16.799ZM7.27204 16.4616L6.6877 16.799L8.18769 19.397L8.77204 19.0597L7.27204 16.4616ZM9.64361 16.9715C9.3751 16.8439 9.11832 16.6951 8.87547 16.5271L7.16861 18.9942C7.5435 19.2536 7.9405 19.4837 8.35634 19.6813L9.64361 16.9715ZM10.5 19V18.3264H7.49997V19H10.5ZM12 20.5C11.1715 20.5 10.5 19.8284 10.5 19H7.49997C7.49997 21.4853 9.51469 23.5 12 23.5V20.5ZM13.5 19C13.5 19.8284 12.8284 20.5 12 20.5V23.5C14.4853 23.5 16.5 21.4853 16.5 19H13.5ZM13.5 18.3264V19H16.5V18.3264H13.5ZM15.1244 16.5271C14.8816 16.6951 14.6248 16.8439 14.3563 16.9715L15.6436 19.6813C16.0594 19.4837 16.4564 19.2536 16.8312 18.9943L15.1244 16.5271ZM17.3121 16.799L16.7278 16.4617L15.2278 19.0597L15.8121 19.397L17.3121 16.799ZM19.3611 16.2499C18.9469 16.9674 18.0295 17.2132 17.3121 16.799L15.8121 19.397C17.9644 20.6397 20.7165 19.9022 21.9592 17.7499L19.3611 16.2499ZM18.8121 14.2009C19.5295 14.6151 19.7753 15.5325 19.3611 16.2499L21.9592 17.7499C23.2018 15.5976 22.4644 12.8455 20.3121 11.6028L18.8121 14.2009ZM18.2275 13.8634L18.8121 14.2009L20.3121 11.6028L19.7276 11.2654L18.2275 13.8634ZM17.5 12C17.5 12.1501 17.494 12.2986 17.4823 12.4451L20.4728 12.6837C20.4908 12.4579 20.5 12.2298 20.5 12H17.5ZM17.4823 11.5548C17.494 11.7014 17.5 11.8498 17.5 12H20.5C20.5 11.7701 20.4908 11.542 20.4728 11.3162L17.4823 11.5548ZM18.8121 9.79897L18.2275 10.1364L19.7275 12.7345L20.3121 12.397L18.8121 9.79897ZM19.3611 7.74993C19.7753 8.46737 19.5295 9.38476 18.8121 9.79897L20.3121 12.397C22.4644 11.1544 23.2018 8.40225 21.9592 6.24993L19.3611 7.74993ZM17.3121 7.20089C18.0295 6.78668 18.9469 7.03249 19.3611 7.74993L21.9592 6.24993C20.7165 4.09762 17.9644 3.36018 15.8121 4.60282L17.3121 7.20089ZM16.7277 7.53826L17.3121 7.20089L15.8121 4.60282L15.2277 4.94019L16.7277 7.53826ZM14.3563 7.02852C14.6248 7.15605 14.8815 7.30484 15.1243 7.47281L16.8311 5.00564C16.4563 4.74634 16.0594 4.51624 15.6436 4.31874L14.3563 7.02852ZM13.5 5V5.67363H16.5V5H13.5ZM12 3.5C12.8284 3.5 13.5 4.17157 13.5 5H16.5C16.5 2.51472 14.4853 0.5 12 0.5V3.5Z" fill="white" mask="url(#path-1-inside-1_1_5739)"/>
<circle cx="12" cy="12" r="2.25" stroke="white" stroke-width="1.5"/>
</svg>
