<svg width="176" height="41" viewBox="0 0 176 41" fill="none" xmlns="http://www.w3.org/2000/svg">
<g clip-path="url(#clip0_650_11583)">
<path fill-rule="evenodd" clip-rule="evenodd" d="M20.1013 40.3232C31.1471 40.3232 40.1013 31.3689 40.1013 20.3232C40.1013 9.27754 31.1471 0.323242 20.1013 0.323242C9.05561 0.323242 0.101318 9.27754 0.101318 20.3232C0.101318 31.3689 9.05561 40.3232 20.1013 40.3232ZM23.1883 15.7758C24.8931 14.0709 24.8931 11.3068 23.1883 9.6019C21.4834 7.89702 18.7193 7.89702 17.0144 9.6019C15.3096 11.3068 15.3096 14.0709 17.0144 15.7758L20.1013 18.8627L23.1883 15.7758ZM24.6488 23.4102C26.3537 25.1151 29.1178 25.1151 30.8227 23.4102C32.5275 21.7053 32.5275 18.9412 30.8227 17.2363C29.1178 15.5315 26.3537 15.5315 24.6488 17.2363L21.5619 20.3233L24.6488 23.4102ZM23.1883 31.0446C24.8931 29.3397 24.8931 26.5756 23.1883 24.8707L20.1013 21.7838L17.0144 24.8707C15.3096 26.5756 15.3096 29.3397 17.0144 31.0446C18.7193 32.7495 21.4834 32.7495 23.1883 31.0446ZM9.37995 23.4102C7.67511 21.7053 7.67511 18.9412 9.37995 17.2363C11.0849 15.5315 13.849 15.5315 15.5539 17.2363L18.6408 20.3233L15.5539 23.4102C13.849 25.1151 11.0849 25.1151 9.37995 23.4102Z" fill="#4D8076"/>
</g>
<path d="M50.016 32V11.14H53.824V32H50.016ZM57.5283 32V16.768H60.9723V19.764L60.6923 19.232C61.047 18.3173 61.6256 17.6267 62.4283 17.16C63.2496 16.6747 64.2016 16.432 65.2843 16.432C66.4043 16.432 67.3936 16.6747 68.2523 17.16C69.1296 17.6453 69.811 18.3267 70.2963 19.204C70.7816 20.0627 71.0243 21.0613 71.0243 22.2V32H67.3563V23.068C67.3563 22.396 67.2256 21.8173 66.9643 21.332C66.703 20.8467 66.339 20.4733 65.8723 20.212C65.4243 19.932 64.8923 19.792 64.2763 19.792C63.679 19.792 63.147 19.932 62.6803 20.212C62.2136 20.4733 61.8496 20.8467 61.5883 21.332C61.327 21.8173 61.1963 22.396 61.1963 23.068V32H57.5283ZM79.922 32.336C78.298 32.336 76.8793 31.9533 75.666 31.188C74.4713 30.404 73.65 29.3493 73.202 28.024L75.946 26.708C76.338 27.5667 76.8793 28.2387 77.57 28.724C78.2793 29.2093 79.0633 29.452 79.922 29.452C80.594 29.452 81.126 29.3027 81.518 29.004C81.91 28.7053 82.106 28.3133 82.106 27.828C82.106 27.5293 82.022 27.2867 81.854 27.1C81.7046 26.8947 81.49 26.7267 81.21 26.596C80.9486 26.4467 80.6593 26.3253 80.342 26.232L77.85 25.532C76.562 25.1587 75.582 24.5893 74.91 23.824C74.2566 23.0587 73.93 22.1533 73.93 21.108C73.93 20.1747 74.1633 19.3627 74.63 18.672C75.1153 17.9627 75.778 17.412 76.618 17.02C77.4766 16.628 78.4566 16.432 79.558 16.432C80.9953 16.432 82.2646 16.7773 83.366 17.468C84.4673 18.1587 85.2513 19.1293 85.718 20.38L82.918 21.696C82.6566 21.0053 82.218 20.4547 81.602 20.044C80.986 19.6333 80.2953 19.428 79.53 19.428C78.914 19.428 78.4286 19.568 78.074 19.848C77.7193 20.128 77.542 20.492 77.542 20.94C77.542 21.22 77.6166 21.4627 77.766 21.668C77.9153 21.8733 78.1206 22.0413 78.382 22.172C78.662 22.3027 78.9793 22.424 79.334 22.536L81.77 23.264C83.0206 23.6373 83.982 24.1973 84.654 24.944C85.3446 25.6907 85.69 26.6053 85.69 27.688C85.69 28.6027 85.4473 29.4147 84.962 30.124C84.4766 30.8147 83.8046 31.356 82.946 31.748C82.0873 32.14 81.0793 32.336 79.922 32.336ZM95.4528 32.168C93.7354 32.168 92.4008 31.7013 91.4488 30.768C90.5154 29.816 90.0488 28.4813 90.0488 26.764V20.044H87.4168V16.768H87.6968C88.4434 16.768 89.0221 16.572 89.4328 16.18C89.8434 15.788 90.0488 15.2187 90.0488 14.472V13.296H93.7168V16.768H97.2168V20.044H93.7168V26.568C93.7168 27.072 93.8008 27.5013 93.9688 27.856C94.1554 28.2107 94.4354 28.4813 94.8088 28.668C95.2008 28.8547 95.6954 28.948 96.2928 28.948C96.4234 28.948 96.5728 28.9387 96.7408 28.92C96.9274 28.9013 97.1048 28.8827 97.2728 28.864V32C97.0114 32.0373 96.7128 32.0747 96.3768 32.112C96.0408 32.1493 95.7328 32.168 95.4528 32.168ZM104.641 32.336C103.577 32.336 102.653 32.1587 101.869 31.804C101.085 31.4493 100.478 30.9453 100.049 30.292C99.6192 29.62 99.4045 28.8453 99.4045 27.968C99.4045 27.128 99.5912 26.3813 99.9645 25.728C100.338 25.056 100.917 24.496 101.701 24.048C102.485 23.6 103.474 23.2827 104.669 23.096L109.653 22.284V25.084L105.369 25.812C104.641 25.9427 104.099 26.176 103.745 26.512C103.39 26.848 103.213 27.2867 103.213 27.828C103.213 28.3507 103.409 28.7707 103.801 29.088C104.211 29.3867 104.715 29.536 105.312 29.536C106.078 29.536 106.75 29.3773 107.329 29.06C107.926 28.724 108.383 28.2667 108.701 27.688C109.037 27.1093 109.205 26.4747 109.205 25.784V21.864C109.205 21.2107 108.943 20.6693 108.421 20.24C107.917 19.792 107.245 19.568 106.405 19.568C105.621 19.568 104.921 19.7827 104.305 20.212C103.707 20.6227 103.269 21.1733 102.989 21.864L99.9925 20.408C100.291 19.6053 100.758 18.9147 101.393 18.336C102.046 17.7387 102.811 17.272 103.689 16.936C104.566 16.6 105.518 16.432 106.544 16.432C107.795 16.432 108.897 16.6653 109.849 17.132C110.801 17.58 111.538 18.2147 112.061 19.036C112.602 19.8387 112.873 20.7813 112.873 21.864V32H109.401V29.396L110.185 29.34C109.793 29.9933 109.326 30.544 108.785 30.992C108.243 31.4213 107.627 31.7573 106.937 32C106.246 32.224 105.481 32.336 104.641 32.336ZM116.571 32V11.14H124.355C125.773 11.14 127.024 11.4013 128.107 11.924C129.208 12.428 130.067 13.1747 130.683 14.164C131.299 15.1347 131.607 16.32 131.607 17.72C131.607 19.1013 131.289 20.2867 130.655 21.276C130.039 22.2467 129.189 22.9933 128.107 23.516C127.024 24.0387 125.773 24.3 124.355 24.3H120.379V32H116.571ZM120.379 20.94H124.411C125.101 20.94 125.699 20.8093 126.203 20.548C126.707 20.268 127.099 19.8853 127.379 19.4C127.659 18.9147 127.799 18.3547 127.799 17.72C127.799 17.0667 127.659 16.5067 127.379 16.04C127.099 15.5547 126.707 15.1813 126.203 14.92C125.699 14.64 125.101 14.5 124.411 14.5H120.379V20.94ZM145.003 32.336C143.472 32.336 142.044 32.0653 140.719 31.524C139.394 30.9827 138.236 30.2267 137.247 29.256C136.258 28.2853 135.483 27.1467 134.923 25.84C134.382 24.5147 134.111 23.0867 134.111 21.556C134.111 20.0067 134.382 18.5787 134.923 17.272C135.464 15.9653 136.23 14.8267 137.219 13.856C138.208 12.8853 139.366 12.1387 140.691 11.616C142.016 11.0747 143.454 10.804 145.003 10.804C146.552 10.804 147.99 11.0747 149.315 11.616C150.64 12.1573 151.798 12.9133 152.787 13.884C153.776 14.836 154.542 15.9653 155.083 17.272C155.643 18.5787 155.923 20.0067 155.923 21.556C155.923 23.0867 155.643 24.5147 155.083 25.84C154.523 27.1467 153.748 28.2853 152.759 29.256C151.77 30.2267 150.612 30.9827 149.287 31.524C147.98 32.0653 146.552 32.336 145.003 32.336ZM145.003 28.864C146.03 28.864 146.972 28.6867 147.831 28.332C148.69 27.9587 149.436 27.4453 150.071 26.792C150.724 26.1387 151.219 25.364 151.555 24.468C151.91 23.572 152.087 22.6013 152.087 21.556C152.087 20.5107 151.91 19.5493 151.555 18.672C151.219 17.776 150.724 17.0013 150.071 16.348C149.436 15.676 148.69 15.1627 147.831 14.808C146.972 14.4533 146.03 14.276 145.003 14.276C143.995 14.276 143.062 14.4533 142.203 14.808C141.344 15.1627 140.588 15.676 139.935 16.348C139.3 17.0013 138.806 17.776 138.451 18.672C138.096 19.5493 137.919 20.5107 137.919 21.556C137.919 22.6013 138.096 23.572 138.451 24.468C138.806 25.364 139.3 26.1387 139.935 26.792C140.588 27.4453 141.344 27.9587 142.203 28.332C143.062 28.6867 143.995 28.864 145.003 28.864ZM166.757 32.336C165.432 32.336 164.2 32.0933 163.061 31.608C161.941 31.1227 160.97 30.4507 160.149 29.592C159.346 28.7147 158.758 27.6973 158.385 26.54L161.549 25.168C162.053 26.3627 162.781 27.3053 163.733 27.996C164.685 28.668 165.758 29.004 166.953 29.004C167.625 29.004 168.204 28.9013 168.689 28.696C169.193 28.472 169.576 28.1733 169.837 27.8C170.117 27.4267 170.257 26.9787 170.257 26.456C170.257 25.84 170.07 25.336 169.697 24.944C169.342 24.5333 168.801 24.216 168.073 23.992L164.069 22.704C162.445 22.2 161.222 21.444 160.401 20.436C159.58 19.428 159.169 18.2427 159.169 16.88C159.169 15.6853 159.458 14.6307 160.037 13.716C160.634 12.8013 161.456 12.092 162.501 11.588C163.565 11.0653 164.778 10.804 166.141 10.804C167.392 10.804 168.54 11.028 169.585 11.476C170.63 11.9053 171.526 12.512 172.273 13.296C173.038 14.0613 173.608 14.9667 173.981 16.012L170.845 17.412C170.434 16.3667 169.818 15.564 168.997 15.004C168.176 14.4253 167.224 14.136 166.141 14.136C165.506 14.136 164.946 14.248 164.461 14.472C163.976 14.6773 163.593 14.976 163.313 15.368C163.052 15.7413 162.921 16.1893 162.921 16.712C162.921 17.2907 163.108 17.804 163.481 18.252C163.854 18.6813 164.424 19.0173 165.189 19.26L169.025 20.464C170.686 21.0053 171.928 21.752 172.749 22.704C173.589 23.656 174.009 24.832 174.009 26.232C174.009 27.4267 173.701 28.4813 173.085 29.396C172.469 30.3107 171.62 31.0293 170.537 31.552C169.454 32.0747 168.194 32.336 166.757 32.336Z" fill="#4D8076"/>
<defs>
<clipPath id="clip0_650_11583">
<rect width="40" height="41" fill="white"/>
</clipPath>
</defs>
</svg>
