<svg width="24" height="24" viewBox="0 0 24 24" fill="none" xmlns="http://www.w3.org/2000/svg">
<path d="M5.20298 16.0753L4.93196 16.2183L4.93193 20.7287L10.1957 22.469C11.444 22.8817 12.7959 22.8529 14.0247 22.3875L20.9889 19.7497C21.5274 19.5458 21.8544 18.998 21.7784 18.4271C21.6798 17.6861 20.9533 17.1994 20.2306 17.3901L12.4451 19.4456L14.7836 18.6124C15.397 18.3939 15.7739 17.7765 15.688 17.1309C15.6209 16.6269 15.1579 16.2723 14.6539 16.3389L12.5039 16.623C11.709 16.728 10.9007 16.5918 10.1838 16.2319L9.78082 16.0296C8.33645 15.3046 6.63131 15.3216 5.20298 16.0753Z" fill="#FF9228"/>
<path d="M1.78172 16.9448V20.5256C1.78172 21.4921 2.56522 22.2756 3.53172 22.2756H3.93172C4.89822 22.2756 5.68172 21.4921 5.68172 20.5256V16.9448C5.68172 15.9783 4.89822 15.1948 3.93172 15.1948H3.53172C2.56522 15.1948 1.78172 15.9783 1.78172 16.9448Z" fill="#FF9228" stroke="#FFF4E9" stroke-width="1.5" stroke-linecap="round"/>
<path fill-rule="evenodd" clip-rule="evenodd" d="M6.01343 2.9427C4.20995 4.74 4.20995 7.654 6.01343 9.4513L9.35668 12.7831C10.0921 13.516 11.0577 13.8797 12.0216 13.8742C12.9855 13.8797 13.9511 13.516 14.6866 12.7831L18.0298 9.4513C19.8333 7.654 19.8333 4.74 18.0298 2.9427C16.3917 1.31025 13.8293 1.16052 12.0216 2.49351C10.214 1.16052 7.6515 1.31025 6.01343 2.9427Z" fill="#FF9228"/>
<path d="M3.33152 7.29456H7.73152L9.19819 5.8595L11.9892 9.56675L14.9225 4.7832L16.7558 7.29456H20.9315" stroke="#FFF4E9" stroke-width="1.5" stroke-linecap="round"/>
</svg>
