<svg width="24" height="24" viewBox="0 0 24 24" fill="none" xmlns="http://www.w3.org/2000/svg">
<path d="M12.0002 10.4155C7.14012 10.4155 3.20022 13.9973 3.20022 18.4155H20.8002C20.8002 13.9973 16.8603 10.4155 12.0002 10.4155Z" fill="#FF9228"/>
<rect x="1.60021" y="18.4155" width="20.8" height="4.00001" rx="2" fill="#FF9228" stroke="#FFF4E9" stroke-width="1.5"/>
<circle cx="12.0002" cy="8.81582" r="1.6" fill="#FF9228"/>
<path d="M9.26406 1.62704C9.26406 1.62704 8.08941 2.06711 8.52948 3.24176C8.96954 4.41641 7.71941 5.13817 7.43771 5.06269" stroke="#FF9228" stroke-width="1.5" stroke-linecap="round"/>
<path d="M13.2641 0.826749C13.2641 0.826749 12.0894 1.26681 12.5295 2.44146C12.9695 3.61611 11.7194 4.33788 11.4377 4.2624" stroke="#FF9228" stroke-width="1.5" stroke-linecap="round"/>
<path d="M17.2643 1.62704C17.2643 1.62704 16.0897 2.06711 16.5297 3.24176C16.9698 4.41641 15.7196 5.13817 15.4379 5.06269" stroke="#FF9228" stroke-width="1.5" stroke-linecap="round"/>
</svg>
