<svg width="24" height="25" viewBox="0 0 24 25" fill="none" xmlns="http://www.w3.org/2000/svg">
<path d="M18.3996 18.2222V11.943L4.79955 10.4165V18.2223C4.79955 19.1294 5.40939 19.9289 6.29316 20.1334C10.236 21.0454 12.9631 21.0453 16.9059 20.1334C17.7897 19.9289 18.3996 19.1294 18.3996 18.2222Z" fill="#FF9228"/>
<path d="M9.91916 2.90921L1.53657 7.60385C1.20499 7.78955 1.19361 8.26265 1.51587 8.46408L12.3718 15.2496C13.1045 15.7076 14.0485 15.6432 14.7123 15.09L22.5865 8.52763C22.87 8.29132 22.8086 7.83978 22.4722 7.68785L11.7197 2.83147C11.1412 2.57019 10.473 2.59904 9.91916 2.90921Z" fill="#FF9228" stroke="#FFF4E9" stroke-width="1.5" stroke-linecap="round"/>
<path d="M18.7996 17.2173C13.8009 18.284 9.39833 18.2841 4.39961 17.2173" stroke="#FFF4E9" stroke-width="1.5"/>
<path d="M12.8497 7.61625C12.8497 8.08582 12.4691 8.46638 11.9997 8.46638C11.5303 8.46638 11.1497 8.08582 11.1497 7.61625C11.1497 7.14667 11.5303 6.76611 11.9997 6.76611C12.4691 6.76611 12.8497 7.14667 12.8497 7.61625Z" stroke="#FFF4E9" stroke-width="1.5"/>
<path d="M13.1999 8.01611L19.9999 9.9999" stroke="#FFF4E9" stroke-width="1.5" stroke-linecap="round"/>
<mask id="path-6-inside-1_1_1948" fill="white">
<path d="M20.406 9.55957L19.3591 10.4377V13.889C19.3591 14.178 19.5935 14.4124 19.8825 14.4124C20.1716 14.4124 20.406 14.178 20.406 13.889V9.55957Z"/>
</mask>
<path d="M19.3591 10.4377L18.3951 9.28846L17.8591 9.73808V10.4377H19.3591ZM20.406 9.55957H21.906V6.34353L19.442 8.41034L20.406 9.55957ZM20.3231 11.5869L21.37 10.7088L19.442 8.41034L18.3951 9.28846L20.3231 11.5869ZM18.906 9.55957V13.889H21.906V9.55957H18.906ZM20.8591 13.889V10.4377H17.8591V13.889H20.8591ZM19.8825 12.9124C20.4219 12.9124 20.8591 13.3496 20.8591 13.889H17.8591C17.8591 15.0065 18.765 15.9124 19.8825 15.9124V12.9124ZM18.906 13.889C18.906 13.3496 19.3432 12.9124 19.8825 12.9124V15.9124C21.0001 15.9124 21.906 15.0065 21.906 13.889H18.906Z" fill="#FF9228" mask="url(#path-6-inside-1_1_1948)"/>
</svg>
