<svg width="24" height="24" viewBox="0 0 24 24" fill="none" xmlns="http://www.w3.org/2000/svg">
<rect x="1.61573" y="1.61523" width="20.8" height="20.8" rx="4" fill="#FF9228"/>
<path d="M1.19996 7.6001L22.8 7.6001" stroke="#FFF4E9" stroke-width="1.5"/>
<path d="M13.2 4.3999L18.4687 4.3999" stroke="#FFF4E9" stroke-width="1.5" stroke-linecap="round"/>
<ellipse cx="5.30379" cy="4.3501" rx="0.75" ry="0.75" fill="#FFF4E9"/>
<ellipse cx="7.80396" cy="4.3501" rx="0.75" ry="0.75" fill="#FFF4E9"/>
<ellipse cx="10.3036" cy="4.3501" rx="0.75" ry="0.75" fill="#FFF4E9"/>
<path d="M15.3732 11.5829C16.0185 12.2283 16.0185 13.2746 15.3732 13.92L12.0843 17.2089C11.7461 17.5471 11.3012 17.7579 10.8253 17.8054L9.26893 17.9608C9.11179 17.9765 8.97964 17.8443 8.99533 17.6872L9.15072 16.1308C9.19824 15.6549 9.409 15.21 9.74721 14.8718L13.0361 11.5829C13.6815 10.9376 14.7278 10.9376 15.3732 11.5829Z" stroke="#FFF4E9" stroke-width="1.5"/>
</svg>
